<mxfile host="app.diagrams.net" modified="2024-03-27T09:27:36.136Z" agent="Mozilla/5.0 (Macintosh; Intel Mac OS X 10_15_7) AppleWebKit/537.36 (KHTML, like Gecko) Chrome/122.0.0.0 Safari/537.36 Edg/122.0.0.0" version="24.2.0" etag="32GPJJhaNXk2PSftSXdn" type="github">
  <diagram name="第 1 页" id="_njG_FwXGRSTM1yygUaG">
    <mxGraphModel>
      <root>
        <mxCell id="0" />
        <mxCell id="1" parent="0" />
      </root>
    </mxGraphModel>
  </diagram>
</mxfile>
